<svg width="486" height="339" viewBox="0 0 486 339" fill="none" xmlns="http://www.w3.org/2000/svg">
<g filter="url(#filter0_d_1_92)">
<g clip-path="url(#clip0_1_92)">
<g clip-path="url(#clip1_1_92)">
<path opacity="0.05" d="M243 369.86C378.724 369.86 488.75 259.834 488.75 124.11C488.75 -11.6139 378.724 -121.64 243 -121.64C107.276 -121.64 -2.75 -11.6139 -2.75 124.11C-2.75 259.834 107.276 369.86 243 369.86Z" stroke="#99BCFE" stroke-width="0.5"/>
<path opacity="0.08" d="M243 300.86C340.616 300.86 419.75 221.726 419.75 124.11C419.75 26.4938 340.616 -52.6399 243 -52.6399C145.384 -52.6399 66.25 26.4938 66.25 124.11C66.25 221.726 145.384 300.86 243 300.86Z" stroke="#99BCFE" stroke-width="0.5"/>
<path opacity="0.1" d="M243 239.86C306.927 239.86 358.75 188.037 358.75 124.11C358.75 60.1831 306.927 8.36011 243 8.36011C179.073 8.36011 127.25 60.1831 127.25 124.11C127.25 188.037 179.073 239.86 243 239.86Z" stroke="#99BCFE" stroke-width="0.5"/>
<path opacity="0.15" d="M243 191.86C280.417 191.86 310.75 161.527 310.75 124.11C310.75 86.6928 280.417 56.3601 243 56.3601C205.583 56.3601 175.25 86.6928 175.25 124.11C175.25 161.527 205.583 191.86 243 191.86Z" stroke="#99BCFE" stroke-width="0.5"/>
</g>
</g>
</g>
<defs>
<filter id="filter0_d_1_92" x="-4" y="-81.8899" width="494" height="420" filterUnits="userSpaceOnUse" color-interpolation-filters="sRGB">
<feFlood flood-opacity="0" result="BackgroundImageFix"/>
<feColorMatrix in="SourceAlpha" type="matrix" values="0 0 0 0 0 0 0 0 0 0 0 0 0 0 0 0 0 0 127 0" result="hardAlpha"/>
<feOffset dy="4"/>
<feGaussianBlur stdDeviation="2"/>
<feComposite in2="hardAlpha" operator="out"/>
<feColorMatrix type="matrix" values="0 0 0 0 0 0 0 0 0 0 0 0 0 0 0 0 0 0 0.25 0"/>
<feBlend mode="normal" in2="BackgroundImageFix" result="effect1_dropShadow_1_92"/>
<feBlend mode="normal" in="SourceGraphic" in2="effect1_dropShadow_1_92" result="shape"/>
</filter>
<clipPath id="clip0_1_92">
<rect width="486" height="412" fill="white" transform="translate(0 -81.8899)"/>
</clipPath>
<clipPath id="clip1_1_92">
<rect width="492" height="492" fill="white" transform="translate(-3 -121.89)"/>
</clipPath>
</defs>
</svg>
