<svg width="38" height="53" viewBox="0 0 38 53" fill="none" xmlns="http://www.w3.org/2000/svg">
<path fill-rule="evenodd" clip-rule="evenodd" d="M30.4 22.3961C34.597 22.3961 38 25.7221 38 29.8241V44.6811C38 48.7841 34.597 52.1101 30.4 52.1101H7.60001C3.40301 52.1101 0 48.7841 0 44.6811V29.8241C0 25.7221 3.40301 22.3961 7.60001 22.3961H30.4ZM19 29.8241C15.852 29.8241 13.3 32.3191 13.3 35.3961C13.3 38.4731 15.852 40.9671 19 40.9671C22.148 40.9671 24.7 38.4731 24.7 35.3961C24.7 32.3191 22.148 29.8241 19 29.8241ZM19 0.110107C25.296 0.110107 30.4 5.09911 30.4 11.2531V18.6811H24.7V11.2531C24.7 8.17611 22.148 5.68111 19 5.68111C15.852 5.68111 13.3 8.17611 13.3 11.2531V18.6811H7.60001V11.2531C7.60001 5.09911 12.704 0.110107 19 0.110107Z" fill="url(#paint0_linear_1_95)"/>
<defs>
<linearGradient id="paint0_linear_1_95" x1="19" y1="0.110107" x2="19" y2="52.1101" gradientUnits="userSpaceOnUse">
<stop stop-color="#6B84AF"/>
<stop offset="1" stop-color="#99BCFE"/>
</linearGradient>
</defs>
</svg>
