<svg width="16" height="16" viewBox="0 0 16 16" fill="none" xmlns="http://www.w3.org/2000/svg">
<path d="M3.95147 9.84999C3.95147 10.6637 3.29435 11.3213 2.4813 11.3213C1.66826 11.3213 1.01114 10.6637 1.01114 9.84999C1.01114 9.0363 1.66826 8.37866 2.4813 8.37866H3.95147V9.84999ZM4.68655 9.84999C4.68655 9.0363 5.34368 8.37866 6.15672 8.37866C6.96977 8.37866 7.62689 9.0363 7.62689 9.84999V13.5283C7.62689 14.342 6.96977 14.9997 6.15672 14.9997C5.34368 14.9997 4.68655 14.342 4.68655 13.5283V9.84999Z" fill="#99BCFE"/>
<path d="M6.15672 3.94243C5.34368 3.94243 4.68655 3.28479 4.68655 2.47109C4.68655 1.6574 5.34368 0.999756 6.15672 0.999756C6.96977 0.999756 7.62689 1.6574 7.62689 2.47109V3.94243H6.15672ZM6.15672 4.68925C6.96977 4.68925 7.62689 5.34689 7.62689 6.16058C7.62689 6.97428 6.96977 7.63192 6.15672 7.63192H2.47017C1.65712 7.63192 1 6.97428 1 6.16058C1 5.34689 1.65712 4.68925 2.47017 4.68925H6.15672Z" fill="#99BCFE"/>
<path d="M12.0485 6.16058C12.0485 5.34689 12.7056 4.68925 13.5187 4.68925C14.3317 4.68925 14.9889 5.34689 14.9889 6.16058C14.9889 6.97428 14.3317 7.63192 13.5187 7.63192H12.0485V6.16058ZM11.3134 6.16058C11.3134 6.97428 10.6563 7.63192 9.84328 7.63192C9.03023 7.63192 8.37311 6.97428 8.37311 6.16058V2.47109C8.37311 1.6574 9.03023 0.999756 9.84328 0.999756C10.6563 0.999756 11.3134 1.6574 11.3134 2.47109V6.16058Z" fill="#99BCFE"/>
<path d="M9.84328 12.057C10.6563 12.057 11.3134 12.7146 11.3134 13.5283C11.3134 14.342 10.6563 14.9997 9.84328 14.9997C9.03023 14.9997 8.37311 14.342 8.37311 13.5283V12.057H9.84328ZM9.84328 11.3213C9.03023 11.3213 8.37311 10.6637 8.37311 9.84999C8.37311 9.0363 9.03023 8.37866 9.84328 8.37866H13.5298C14.3429 8.37866 15 9.0363 15 9.84999C15 10.6637 14.3429 11.3213 13.5298 11.3213H9.84328Z" fill="#99BCFE"/>
</svg>
