<svg width="72" height="18" viewBox="0 0 72 18" fill="none" xmlns="http://www.w3.org/2000/svg">
<g clip-path="url(#clip0_1_394)">
<path fill-rule="evenodd" clip-rule="evenodd" d="M2.3268 2.94683C2.2317 3.05134 2.238 3.21169 2.3379 3.3116L14.6849 15.6586C14.7849 15.7585 14.9452 15.7648 15.0497 15.6697C16.8601 14.0223 17.9965 11.6471 17.9965 9.00652C17.9965 4.03236 13.9642 0 8.99002 0C6.3494 0 3.97419 1.13641 2.3268 2.94683ZM0.783611 5.29009C0.737985 5.39069 0.76099 5.50865 0.839094 5.58675L12.4098 17.1574C12.4879 17.2355 12.6058 17.2585 12.7064 17.2129C12.9737 17.0917 13.2341 16.9578 13.4866 16.8119C13.6368 16.7253 13.6598 16.5204 13.5372 16.3979L1.59867 4.45936C1.4761 4.33678 1.27126 4.35978 1.18459 4.5099C1.03877 4.76248 0.904852 5.02279 0.783611 5.29009ZM0.081654 8.60328C0.0274778 8.5491 -0.00134764 8.47444 0.00375258 8.39799C0.0276391 8.03995 0.0724477 7.68766 0.136967 7.34229C0.175654 7.1352 0.428698 7.06334 0.577662 7.21229L10.7842 17.4189C10.9332 17.5678 10.8613 17.8209 10.6542 17.8596C10.3089 17.9241 9.95658 17.9689 9.59855 17.9928C9.5221 17.9979 9.44744 17.9691 9.39326 17.9149L0.081654 8.60328ZM0.708006 11.1166C0.522048 10.9306 0.221955 11.0909 0.290058 11.3449C1.1198 14.4397 3.55688 16.8767 6.65164 17.7065C6.90566 17.7746 7.06589 17.4745 6.87993 17.2885L0.708006 11.1166ZM36.2884 4.9563C36.934 4.9563 37.4573 4.43106 37.4573 3.78315C37.4573 3.13524 36.934 2.61 36.2884 2.61C35.6429 2.61 35.1196 3.13524 35.1196 3.78315C35.1196 4.43106 35.6429 4.9563 36.2884 4.9563ZM26.2766 15.1874V2.6107H28.3538V13.3473H33.9545V15.1874H26.2766ZM41.0611 10.0554V15.1874H39.0512V6.27399H41.0359V7.80176L41.0611 7.78489C41.2629 7.30658 41.5881 6.90705 42.0367 6.58629C42.4851 6.25991 43.0569 6.09673 43.7523 6.09673C44.3689 6.09673 44.9295 6.23461 45.4342 6.51033C45.9387 6.78044 46.3423 7.17714 46.645 7.70047C46.9478 8.2238 47.0992 8.86531 47.0992 9.62496V15.1874H45.0893V9.90351C45.0893 9.22826 44.9098 8.71618 44.5511 8.3673C44.1979 8.01279 43.7242 7.83553 43.1298 7.83553C42.7486 7.83553 42.401 7.91431 42.0871 8.07187C41.7732 8.22944 41.5237 8.47139 41.3386 8.79777C41.1536 9.12415 41.0611 9.54337 41.0611 10.0554ZM59.26 15.0355C59.7197 15.2324 60.2467 15.3309 60.8409 15.3309C61.3287 15.3309 61.7463 15.269 62.0939 15.1452C62.4417 15.0158 62.7275 14.8442 62.9518 14.6303C63.1816 14.4165 63.3638 14.183 63.4984 13.9298H63.5321V15.1874H65.4579V9.05099C65.4579 8.6177 65.3737 8.221 65.2056 7.86085C65.0374 7.50071 64.7935 7.18841 64.4738 6.92393C64.1599 6.65944 63.7787 6.45687 63.3301 6.3162C62.8818 6.16988 62.377 6.09673 61.8165 6.09673C61.0485 6.09673 60.3841 6.22897 59.8234 6.49345C59.2682 6.7523 58.8339 7.10118 58.5198 7.54011C58.2059 7.97902 58.0349 8.47422 58.0068 9.02567H59.9496C59.9719 8.76683 60.0617 8.5361 60.2187 8.33353C60.3756 8.13096 60.5887 7.97339 60.8578 7.86085C61.1269 7.74268 61.438 7.68359 61.7913 7.68359C62.1445 7.68359 62.4444 7.74268 62.6911 7.86085C62.9433 7.97902 63.1368 8.1394 63.2713 8.34197C63.4059 8.54455 63.4732 8.78089 63.4732 9.05099V9.11853C63.4732 9.3211 63.403 9.47021 63.263 9.56588C63.1284 9.66154 62.8985 9.73188 62.5734 9.7769C62.2537 9.82192 61.8165 9.87538 61.2614 9.93728C60.8073 9.98791 60.37 10.0639 59.9496 10.1652C59.5291 10.2665 59.1534 10.4156 58.8226 10.6125C58.4975 10.8095 58.2396 11.0712 58.0489 11.3975C57.8583 11.7239 57.7631 12.1431 57.7631 12.6552C57.7631 13.2461 57.8976 13.7412 58.1667 14.1408C58.4358 14.5347 58.8003 14.8329 59.26 15.0355ZM62.5146 13.5415C62.1893 13.7159 61.7884 13.8031 61.312 13.8031C60.8298 13.8031 60.4456 13.7019 60.1598 13.4993C59.8738 13.2911 59.7309 13.0069 59.7309 12.6468C59.7309 12.3654 59.8093 12.1375 59.9663 11.9631C60.129 11.7886 60.3419 11.6508 60.6055 11.5495C60.869 11.4482 61.1548 11.3778 61.4632 11.3384C61.6875 11.3047 61.9062 11.2709 62.1193 11.2371C62.3322 11.1978 62.5313 11.1612 62.7163 11.1274C62.9014 11.088 63.0583 11.0486 63.1872 11.0092C63.3219 10.9699 63.4199 10.9277 63.4815 10.8826V11.8787C63.4815 12.2275 63.4003 12.5483 63.2376 12.8409C63.0807 13.1279 62.8396 13.3614 62.5146 13.5415ZM67.2115 15.1874V6.27399H69.1456V7.74268H69.171C69.3335 7.23623 69.5886 6.85078 69.9361 6.58629C70.2893 6.3162 70.7519 6.18115 71.3238 6.18115C71.464 6.18115 71.5902 6.18676 71.7021 6.19803C71.82 6.20365 71.9181 6.20928 71.9966 6.2149V8.02966C71.9237 8.01841 71.7946 8.00435 71.6098 7.98746C71.4247 7.97058 71.2285 7.96214 71.021 7.96214C70.6902 7.96214 70.3876 8.0381 70.1127 8.19004C69.838 8.34197 69.6193 8.57551 69.4568 8.89061C69.2998 9.20012 69.2214 9.59121 69.2214 10.0639V15.1874H67.2115ZM35.2793 15.1874V6.27399H37.2892V15.1874H35.2793ZM50.4421 14.7907C51.0869 15.1902 51.8523 15.39 52.738 15.39C53.422 15.39 54.0443 15.2662 54.605 15.0186C55.1713 14.7654 55.6422 14.4193 56.0178 13.9804C56.3935 13.5359 56.6374 13.0238 56.7495 12.4442H54.8574C54.7731 12.7086 54.6358 12.9422 54.4452 13.1448C54.2603 13.3417 54.0276 13.4965 53.7473 13.609C53.4669 13.7215 53.1418 13.7778 52.7717 13.7778C52.2727 13.7778 51.8438 13.6653 51.4851 13.4402C51.1319 13.2151 50.8628 12.9028 50.6778 12.5033C50.5098 12.1355 50.418 11.7191 50.4025 11.254H56.8672V10.7138C56.8672 10.0273 56.7663 9.4027 56.5645 8.83998C56.3627 8.27163 56.0767 7.78207 55.7066 7.37129C55.3367 6.95488 54.891 6.63413 54.3696 6.40904C53.8537 6.18395 53.2791 6.07142 52.6455 6.07142C51.8215 6.07142 51.0927 6.27118 50.4591 6.67071C49.8255 7.07024 49.3294 7.6217 48.9705 8.32509C48.6117 9.02849 48.4323 9.83317 48.4323 10.7391C48.4323 11.6395 48.6061 12.4414 48.9537 13.1448C49.3013 13.8425 49.7976 14.3912 50.4421 14.7907ZM54.6723 8.89061C54.4873 8.50797 54.2238 8.21255 53.8817 8.00435C53.5397 7.79614 53.1362 7.69203 52.6707 7.69203C52.211 7.69203 51.8101 7.79614 51.4681 8.00435C51.1319 8.21255 50.8684 8.50797 50.6778 8.89061C50.5417 9.16774 50.4556 9.48287 50.4196 9.83599H54.9303C54.8943 9.48287 54.8082 9.16774 54.6723 8.89061Z" fill="#F7F8F8"/>
</g>
<defs>
<clipPath id="clip0_1_394">
<rect width="72" height="18" fill="white"/>
</clipPath>
</defs>
</svg>
