<svg width="26" height="25" viewBox="0 0 26 25" fill="none" xmlns="http://www.w3.org/2000/svg">
<g clip-path="url(#clip0_1_332)">
<path d="M0.220574 12.0243C0.180524 11.8536 0.38392 11.746 0.507922 11.87L7.08016 18.4423C7.20416 18.5663 7.09663 18.7697 6.9259 18.7296C3.60927 17.9516 0.998602 15.3409 0.220574 12.0243ZM0.000340442 9.39023C-0.00283543 9.44122 0.0163374 9.49101 0.0524633 9.52714L9.42305 18.8977C9.45918 18.9338 9.50897 18.9531 9.55996 18.9498C9.98642 18.9233 10.4048 18.867 10.8132 18.7832C10.9508 18.7549 10.9986 18.5859 10.8993 18.4865L0.463671 8.05092C0.364336 7.95158 0.19526 7.99939 0.167 8.137C0.083135 8.54535 0.0269021 8.96377 0.000340442 9.39023ZM0.757967 6.29717C0.727999 6.36445 0.743263 6.44307 0.795344 6.49517L12.455 18.1548C12.5071 18.2069 12.5857 18.2222 12.653 18.1922C12.9745 18.049 13.2861 17.8875 13.5864 17.7091C13.6858 17.6501 13.7011 17.5135 13.6194 17.4318L1.51842 5.3308C1.43668 5.24906 1.30013 5.2644 1.24109 5.36378C1.06265 5.66409 0.901168 5.97567 0.757967 6.29717ZM2.27857 4.20351C2.21195 4.1369 2.20783 4.03005 2.27059 3.95978C3.92031 2.11287 6.32005 0.950195 8.99134 0.950195C13.9667 0.950195 18 4.98351 18 9.95885C18 12.6301 16.8373 15.0299 14.9904 16.6796C14.9202 16.7424 14.8133 16.7382 14.7467 16.6716L2.27857 4.20351Z" fill="#F7F8F8"/>
</g>
<defs>
<clipPath id="clip0_1_332">
<rect width="18" height="18" fill="white" transform="translate(0 0.950195)"/>
</clipPath>
</defs>
</svg>
