<svg width="180" height="180" viewBox="0 0 180 180" fill="none" xmlns="http://www.w3.org/2000/svg">
<g clip-path="url(#clip0_1_11)">
<mask id="mask0_1_11" style="mask-type:alpha" maskUnits="userSpaceOnUse" x="-1" y="-1" width="182" height="182">
<path d="M69.9657 90.0511C67.6227 96.3481 66.4516 104.587 66.4516 114.767C66.4516 119.115 69.8594 122.639 74.0628 122.639H105.13C107.652 122.639 109.697 120.525 109.697 117.916C109.697 112.039 110.919 107.001 113.364 102.804C115.809 98.6052 119.272 94.7219 123.755 91.1526C128.339 87.48 133.739 83.4914 139.953 79.1888C142.383 77.5442 145.722 78.388 146.969 81.1012L177.911 148.472C184.634 163.111 174.313 180 158.642 180H122.741C120.846 180 119.029 179.247 117.69 177.908C116.35 176.568 115.598 174.752 115.598 172.857V171.175C115.598 156.553 104.137 144.701 89.9999 144.701C75.8628 144.701 64.4021 156.553 64.4021 171.175V172.857C64.4021 174.752 63.6496 176.568 62.31 177.908C60.9705 179.247 59.1537 180 57.2594 180H21.3576C5.68733 180 -4.63404 163.111 2.08937 148.472L62.7841 16.5303C65.2499 11.1774 69.4063 7.08443 74.3972 4.25045C79.4904 1.4175 85.4508 0 92.2755 0C98.4906 0 103.89 1.15466 108.474 3.46398C113.058 5.66795 116.624 8.86909 119.171 13.0674C121.718 17.1603 122.991 21.9876 122.991 27.5502C122.991 33.5332 121.26 39.2533 117.796 44.7116C114.434 50.1678 108.983 55.2058 101.444 59.8244C93.2952 64.5474 86.6219 69.165 81.4264 73.6783C76.231 78.1916 72.4111 83.6489 69.9657 90.0511Z" fill="#D9D9D9"/>
<path d="M69.299 89.7955L69.2969 89.8016C66.913 96.209 65.7378 104.541 65.7378 114.767C65.7378 119.487 69.4422 123.354 74.0628 123.354H105.13C108.07 123.354 110.411 120.897 110.411 117.916C110.411 112.139 111.612 107.231 113.981 103.163C116.374 99.0532 119.775 95.2343 124.2 91.7121L124.202 91.71C128.769 88.0507 134.153 84.0733 140.356 79.7778C142.436 78.3736 145.266 79.1049 146.32 81.3989L177.262 148.771C183.783 162.971 173.754 179.286 158.642 179.286H122.741C121.036 179.286 119.4 178.609 118.195 177.403C116.989 176.198 116.312 174.562 116.312 172.857V171.175C116.312 156.182 104.554 143.987 90 143.987C75.4466 143.987 63.6883 156.182 63.6883 171.175V172.857C63.6883 174.562 63.011 176.198 61.8053 177.403C60.5997 178.609 58.9645 179.286 57.2594 179.286H21.3576C6.2458 179.286 -3.78307 162.971 2.73784 148.771L63.4326 16.829C65.8258 11.6335 69.8656 7.64489 74.7481 4.8733C79.7185 2.10887 85.5511 0.713867 92.2756 0.713867C98.4017 0.713867 103.687 1.85216 108.152 4.10114L108.165 4.10728C112.629 6.25398 116.088 9.36205 118.56 13.4376L118.565 13.4438C121.031 17.4078 122.276 22.1001 122.276 27.5502C122.276 33.3869 120.59 38.9751 117.192 44.3281L117.187 44.3363C113.903 49.6667 108.552 54.631 101.079 59.2108C92.9076 63.946 86.1965 68.5892 80.9581 73.1393C75.6747 77.7273 71.7842 83.2848 69.299 89.7955Z" stroke="url(#paint0_linear_1_11)" stroke-opacity="0.2" stroke-width="1.42875"/>
</mask>
<g mask="url(#mask0_1_11)">
<g opacity="0.7">
<path d="M60.3409 242.386C93.6663 242.386 120.682 215.371 120.682 182.045C120.682 148.72 93.6663 121.705 60.3409 121.705C27.0155 121.705 0 148.72 0 182.045C0 215.371 27.0155 242.386 60.3409 242.386Z" fill="#5E6AD2"/>
</g>
<path style="mix-blend-mode:luminosity" d="M70.1847 24.9374C78.2847 6.71544 104.202 6.87601 112.074 25.1982L166.214 151.214C170.033 160.103 163.513 170 153.838 170H26.4385C16.6919 170 10.172 159.967 14.131 151.06L70.1847 24.9374Z" fill="url(#paint1_linear_1_11)" fill-opacity="0.08"/>
<path d="M111.417 25.4794L165.557 151.496C169.173 159.914 162.999 169.285 153.838 169.285H26.4385C17.2084 169.285 11.0342 159.785 14.7835 151.35L70.8382 25.2278C78.6825 7.57551 103.791 7.73096 111.417 25.4794Z" stroke="url(#paint2_linear_1_11)" stroke-opacity="0.3" stroke-width="1.42875"/>
<path d="M111.417 25.4794L165.557 151.496C169.173 159.914 162.999 169.285 153.838 169.285H26.4385C17.2084 169.285 11.0342 159.785 14.7835 151.35L70.8382 25.2278C78.6825 7.57551 103.791 7.73096 111.417 25.4794Z" stroke="url(#paint3_linear_1_11)" stroke-opacity="0.3" stroke-width="1.42875"/>
<path d="M111.417 25.4794L165.557 151.496C169.173 159.914 162.999 169.285 153.838 169.285H26.4385C17.2084 169.285 11.0342 159.785 14.7835 151.35L70.8382 25.2278C78.6825 7.57551 103.791 7.73096 111.417 25.4794Z" stroke="url(#paint4_linear_1_11)" stroke-opacity="0.3" stroke-width="1.42875"/>
<g opacity="0.3">
<path d="M130.909 93.0683C164.234 93.0683 191.25 66.0527 191.25 32.7274C191.25 -0.59798 164.234 -27.6135 130.909 -27.6135C97.5837 -27.6135 70.5682 -0.59798 70.5682 32.7274C70.5682 66.0527 97.5837 93.0683 130.909 93.0683Z" fill="#FC7840"/>
</g>
<g opacity="0.7">
<path d="M111.477 93.0683C127.858 93.0683 141.136 66.0527 141.136 32.7274C141.136 -0.59798 127.858 -27.6135 111.477 -27.6135C95.097 -27.6135 81.8182 -0.59798 81.8182 32.7274C81.8182 66.0527 95.097 93.0683 111.477 93.0683Z" fill="#FC7840"/>
</g>
<path style="mix-blend-mode:luminosity" d="M77.7058 33.0004C82.7397 21.5592 99.002 21.6441 103.916 33.1375L153.295 148.62C155.309 153.332 151.853 158.571 146.727 158.571H33.3982C28.2416 158.571 24.7837 153.272 26.8609 148.551L77.7058 33.0004Z" fill="url(#paint5_linear_1_11)" fill-opacity="0.08"/>
<path d="M103.26 33.4178L152.638 148.901C154.451 153.142 151.34 157.857 146.727 157.857H33.3982C28.757 157.857 25.6459 153.088 27.5144 148.839L78.3593 33.2879C83.1416 22.4184 98.5909 22.4992 103.26 33.4178Z" stroke="url(#paint6_linear_1_11)" stroke-opacity="0.3" stroke-width="1.42875"/>
<path d="M103.26 33.4178L152.638 148.901C154.451 153.142 151.34 157.857 146.727 157.857H33.3982C28.757 157.857 25.6459 153.088 27.5144 148.839L78.3593 33.2879C83.1416 22.4184 98.5909 22.4992 103.26 33.4178Z" stroke="url(#paint7_linear_1_11)" stroke-opacity="0.3" stroke-width="1.42875"/>
<path d="M103.26 33.4178L152.638 148.901C154.451 153.142 151.34 157.857 146.727 157.857H33.3982C28.757 157.857 25.6459 153.088 27.5144 148.839L78.3593 33.2879C83.1416 22.4184 98.5909 22.4992 103.26 33.4178Z" stroke="url(#paint8_linear_1_11)" stroke-opacity="0.3" stroke-width="1.42875"/>
</g>
<path d="M69.9657 90.0511C67.6227 96.3481 66.4516 104.587 66.4516 114.767C66.4516 119.115 69.8594 122.639 74.0628 122.639H105.13C107.652 122.639 109.697 120.525 109.697 117.916C109.697 112.039 110.919 107.001 113.364 102.804C115.809 98.6052 119.272 94.7219 123.755 91.1526C128.339 87.48 133.739 83.4914 139.953 79.1888C142.383 77.5442 145.722 78.388 146.969 81.1012L177.911 148.472C184.634 163.111 174.313 180 158.642 180H122.741C120.846 180 119.029 179.247 117.69 177.908C116.35 176.568 115.598 174.752 115.598 172.857V171.175C115.598 156.553 104.137 144.701 89.9999 144.701C75.8628 144.701 64.4021 156.553 64.4021 171.175V172.857C64.4021 174.752 63.6496 176.568 62.31 177.908C60.9705 179.247 59.1537 180 57.2594 180H21.3576C5.68733 180 -4.63404 163.111 2.08937 148.472L62.7841 16.5303C65.2499 11.1774 69.4063 7.08443 74.3972 4.25045C79.4904 1.4175 85.4508 0 92.2755 0C98.4906 0 103.89 1.15466 108.474 3.46398C113.058 5.66795 116.624 8.86909 119.171 13.0674C121.718 17.1603 122.991 21.9876 122.991 27.5502C122.991 33.5332 121.26 39.2533 117.796 44.7116C114.434 50.1678 108.983 55.2058 101.444 59.8244C93.2952 64.5474 86.6219 69.165 81.4264 73.6783C76.231 78.1916 72.4111 83.6489 69.9657 90.0511Z" fill="url(#paint9_linear_1_11)" fill-opacity="0.08"/>
<path d="M69.299 89.7955L69.2969 89.8016C66.913 96.209 65.7378 104.541 65.7378 114.767C65.7378 119.487 69.4422 123.354 74.0628 123.354H105.13C108.07 123.354 110.411 120.897 110.411 117.916C110.411 112.139 111.612 107.231 113.981 103.163C116.374 99.0532 119.775 95.2343 124.2 91.7121L124.202 91.71C128.769 88.0507 134.153 84.0733 140.356 79.7778C142.436 78.3736 145.266 79.1049 146.32 81.3989L177.262 148.771C183.783 162.971 173.754 179.286 158.642 179.286H122.741C121.036 179.286 119.4 178.609 118.195 177.403C116.989 176.198 116.312 174.562 116.312 172.857V171.175C116.312 156.182 104.554 143.987 90 143.987C75.4466 143.987 63.6883 156.182 63.6883 171.175V172.857C63.6883 174.562 63.011 176.198 61.8053 177.403C60.5997 178.609 58.9645 179.286 57.2594 179.286H21.3576C6.2458 179.286 -3.78307 162.971 2.73784 148.771L63.4326 16.829C65.8258 11.6335 69.8656 7.64489 74.7481 4.8733C79.7185 2.10887 85.5511 0.713867 92.2756 0.713867C98.4017 0.713867 103.687 1.85216 108.152 4.10114L108.165 4.10728C112.629 6.25398 116.088 9.36205 118.56 13.4376L118.565 13.4438C121.031 17.4078 122.276 22.1001 122.276 27.5502C122.276 33.3869 120.59 38.9751 117.192 44.3281L117.187 44.3363C113.903 49.6667 108.552 54.631 101.079 59.2108C92.9076 63.946 86.1965 68.5892 80.9581 73.1393C75.6747 77.7273 71.7842 83.2848 69.299 89.7955Z" stroke="url(#paint10_linear_1_11)" stroke-opacity="0.3" stroke-width="1.42875"/>
<path d="M69.299 89.7955L69.2969 89.8016C66.913 96.209 65.7378 104.541 65.7378 114.767C65.7378 119.487 69.4422 123.354 74.0628 123.354H105.13C108.07 123.354 110.411 120.897 110.411 117.916C110.411 112.139 111.612 107.231 113.981 103.163C116.374 99.0532 119.775 95.2343 124.2 91.7121L124.202 91.71C128.769 88.0507 134.153 84.0733 140.356 79.7778C142.436 78.3736 145.266 79.1049 146.32 81.3989L177.262 148.771C183.783 162.971 173.754 179.286 158.642 179.286H122.741C121.036 179.286 119.4 178.609 118.195 177.403C116.989 176.198 116.312 174.562 116.312 172.857V171.175C116.312 156.182 104.554 143.987 90 143.987C75.4466 143.987 63.6883 156.182 63.6883 171.175V172.857C63.6883 174.562 63.011 176.198 61.8053 177.403C60.5997 178.609 58.9645 179.286 57.2594 179.286H21.3576C6.2458 179.286 -3.78307 162.971 2.73784 148.771L63.4326 16.829C65.8258 11.6335 69.8656 7.64489 74.7481 4.8733C79.7185 2.10887 85.5511 0.713867 92.2756 0.713867C98.4017 0.713867 103.687 1.85216 108.152 4.10114L108.165 4.10728C112.629 6.25398 116.088 9.36205 118.56 13.4376L118.565 13.4438C121.031 17.4078 122.276 22.1001 122.276 27.5502C122.276 33.3869 120.59 38.9751 117.192 44.3281L117.187 44.3363C113.903 49.6667 108.552 54.631 101.079 59.2108C92.9076 63.946 86.1965 68.5892 80.9581 73.1393C75.6747 77.7273 71.7842 83.2848 69.299 89.7955Z" stroke="url(#paint11_linear_1_11)" stroke-opacity="0.1" stroke-width="1.42875"/>
<path d="M69.299 89.7955L69.2969 89.8016C66.913 96.209 65.7378 104.541 65.7378 114.767C65.7378 119.487 69.4422 123.354 74.0628 123.354H105.13C108.07 123.354 110.411 120.897 110.411 117.916C110.411 112.139 111.612 107.231 113.981 103.163C116.374 99.0532 119.775 95.2343 124.2 91.7121L124.202 91.71C128.769 88.0507 134.153 84.0733 140.356 79.7778C142.436 78.3736 145.266 79.1049 146.32 81.3989L177.262 148.771C183.783 162.971 173.754 179.286 158.642 179.286H122.741C121.036 179.286 119.4 178.609 118.195 177.403C116.989 176.198 116.312 174.562 116.312 172.857V171.175C116.312 156.182 104.554 143.987 90 143.987C75.4466 143.987 63.6883 156.182 63.6883 171.175V172.857C63.6883 174.562 63.011 176.198 61.8053 177.403C60.5997 178.609 58.9645 179.286 57.2594 179.286H21.3576C6.2458 179.286 -3.78307 162.971 2.73784 148.771L63.4326 16.829C65.8258 11.6335 69.8656 7.64489 74.7481 4.8733C79.7185 2.10887 85.5511 0.713867 92.2756 0.713867C98.4017 0.713867 103.687 1.85216 108.152 4.10114L108.165 4.10728C112.629 6.25398 116.088 9.36205 118.56 13.4376L118.565 13.4438C121.031 17.4078 122.276 22.1001 122.276 27.5502C122.276 33.3869 120.59 38.9751 117.192 44.3281L117.187 44.3363C113.903 49.6667 108.552 54.631 101.079 59.2108C92.9076 63.946 86.1965 68.5892 80.9581 73.1393C75.6747 77.7273 71.7842 83.2848 69.299 89.7955Z" stroke="url(#paint12_linear_1_11)" stroke-opacity="0.1" stroke-width="1.42875"/>
</g>
<defs>
<linearGradient id="paint0_linear_1_11" x1="16.831" y1="179.788" x2="122.454" y2="54.9696" gradientUnits="userSpaceOnUse">
<stop stop-color="#5E6AD2"/>
<stop offset="1" stop-color="#5E6AD2" stop-opacity="0"/>
</linearGradient>
<linearGradient id="paint1_linear_1_11" x1="89.4078" y1="148.001" x2="89.4078" y2="5.75919" gradientUnits="userSpaceOnUse">
<stop stop-color="white"/>
<stop offset="1" stop-color="white" stop-opacity="0"/>
</linearGradient>
<linearGradient id="paint2_linear_1_11" x1="89.4078" y1="5.75914" x2="89.4078" y2="148.001" gradientUnits="userSpaceOnUse">
<stop stop-color="white" stop-opacity="0.8"/>
<stop offset="1" stop-color="white" stop-opacity="0.25"/>
</linearGradient>
<linearGradient id="paint3_linear_1_11" x1="111.692" y1="2.73699" x2="64.8072" y2="47.4189" gradientUnits="userSpaceOnUse">
<stop stop-color="#FC7840"/>
<stop offset="1" stop-color="#FC7840" stop-opacity="0"/>
</linearGradient>
<linearGradient id="paint4_linear_1_11" x1="21.4752" y1="169.773" x2="136.164" y2="51.3073" gradientUnits="userSpaceOnUse">
<stop stop-color="#5E6AD2"/>
<stop offset="1" stop-color="#5E6AD2" stop-opacity="0"/>
</linearGradient>
<linearGradient id="paint5_linear_1_11" x1="89.6001" y1="92.0456" x2="89.6001" y2="21.8333" gradientUnits="userSpaceOnUse">
<stop stop-color="white"/>
<stop offset="1" stop-color="white" stop-opacity="0"/>
</linearGradient>
<linearGradient id="paint6_linear_1_11" x1="89.6001" y1="21.8334" x2="89.6001" y2="130.358" gradientUnits="userSpaceOnUse">
<stop stop-color="white" stop-opacity="0.8"/>
<stop offset="1" stop-color="white" stop-opacity="0.25"/>
</linearGradient>
<linearGradient id="paint7_linear_1_11" x1="107.386" y1="23.5219" x2="69.5455" y2="59.3174" gradientUnits="userSpaceOnUse">
<stop stop-color="#FC7840"/>
<stop offset="1" stop-color="#FC7840" stop-opacity="0"/>
</linearGradient>
<linearGradient id="paint8_linear_1_11" x1="35.0847" y1="158.388" x2="127.705" y2="63.4267" gradientUnits="userSpaceOnUse">
<stop stop-color="#5E6AD2"/>
<stop offset="1" stop-color="#5E6AD2" stop-opacity="0"/>
</linearGradient>
<linearGradient id="paint9_linear_1_11" x1="89.9999" y1="180" x2="89.9999" y2="0" gradientUnits="userSpaceOnUse">
<stop stop-color="white"/>
<stop offset="1" stop-color="white" stop-opacity="0"/>
</linearGradient>
<linearGradient id="paint10_linear_1_11" x1="90" y1="3.56558e-06" x2="90" y2="180" gradientUnits="userSpaceOnUse">
<stop stop-color="white" stop-opacity="0.8"/>
<stop offset="1" stop-color="white" stop-opacity="0.25"/>
</linearGradient>
<linearGradient id="paint11_linear_1_11" x1="113.164" y1="23.8889" x2="69.5168" y2="71.4764" gradientUnits="userSpaceOnUse">
<stop stop-color="#FC7840"/>
<stop offset="1" stop-color="#FC7840" stop-opacity="0"/>
</linearGradient>
<linearGradient id="paint12_linear_1_11" x1="16.831" y1="179.788" x2="122.454" y2="54.9696" gradientUnits="userSpaceOnUse">
<stop stop-color="#5E6AD2"/>
<stop offset="1" stop-color="#5E6AD2" stop-opacity="0"/>
</linearGradient>
<clipPath id="clip0_1_11">
<rect width="180" height="180" fill="white"/>
</clipPath>
</defs>
</svg>
