<svg width="16" height="17" viewBox="0 0 16 17" fill="none" xmlns="http://www.w3.org/2000/svg">
<path fill-rule="evenodd" clip-rule="evenodd" d="M3.05025 13.2798C5.78392 16.0135 10.2161 16.0135 12.9497 13.2798C15.6834 10.5462 15.6834 6.114 12.9497 3.38033C10.2161 0.646661 5.78392 0.646661 3.05025 3.38033C0.316582 6.114 0.316584 10.5462 3.05025 13.2798ZM8.75 5.50165C8.75 5.08744 8.41421 4.75165 8 4.75165C7.58579 4.75165 7.25 5.08744 7.25 5.50165V7.58008H5.17157C4.75736 7.58008 4.42157 7.91587 4.42157 8.33008C4.42157 8.74429 4.75736 9.08008 5.17157 9.08008H7.25V11.1585C7.25 11.5727 7.58579 11.9085 8 11.9085C8.41421 11.9085 8.75 11.5727 8.75 11.1585V9.08008H10.8284C11.2426 9.08008 11.5784 8.74429 11.5784 8.33008C11.5784 7.91587 11.2426 7.58008 10.8284 7.58008H8.75V5.50165Z" fill="#8A8F98"/>
</svg>
